<svg width="185" height="96" viewBox="0 0 185 96" fill="none" xmlns="http://www.w3.org/2000/svg">
<ellipse cx="12.5793" cy="12.2122" rx="12.579" ry="12.2122" fill="#EDEEFF"/>
<ellipse cx="56.4262" cy="12.2122" rx="12.579" ry="12.2122" fill="#EDEEFF"/>
<ellipse cx="99.5542" cy="12.2122" rx="12.579" ry="12.2122" fill="#EDEEFF"/>
<ellipse cx="144.12" cy="12.2122" rx="12.579" ry="12.2122" fill="#EDEEFF"/>
<ellipse cx="187.248" cy="12.2122" rx="12.579" ry="12.2122" fill="#EDEEFF"/>
<ellipse cx="12.5793" cy="47.8021" rx="12.579" ry="12.2122" fill="#EDEEFF"/>
<ellipse cx="56.4262" cy="47.8021" rx="12.579" ry="12.2122" fill="#EDEEFF"/>
<ellipse cx="99.5542" cy="47.8021" rx="12.579" ry="12.2122" fill="#EDEEFF"/>
<ellipse cx="144.12" cy="47.8021" rx="12.579" ry="12.2122" fill="#EDEEFF"/>
<ellipse cx="187.248" cy="47.8021" rx="12.579" ry="12.2122" fill="#EDEEFF"/>
<ellipse cx="12.5793" cy="83.3921" rx="12.579" ry="12.2122" fill="#EDEEFF"/>
<ellipse cx="56.4262" cy="83.3921" rx="12.579" ry="12.2122" fill="#EDEEFF"/>
<ellipse cx="99.5542" cy="83.3921" rx="12.579" ry="12.2122" fill="#EDEEFF"/>
<ellipse cx="144.12" cy="83.3921" rx="12.579" ry="12.2122" fill="#EDEEFF"/>
<ellipse cx="187.248" cy="83.3921" rx="12.579" ry="12.2122" fill="#EDEEFF"/>
</svg>
