<svg width="175" height="154" viewBox="0 0 175 154" fill="none" xmlns="http://www.w3.org/2000/svg">
<path fill-rule="evenodd" clip-rule="evenodd" d="M112.63 143.589C119.043 144.243 125.38 144.946 131.808 145.412C133.191 145.518 134.386 144.487 134.486 143.114C134.592 141.731 133.553 140.531 132.179 140.43C125.787 139.962 119.503 139.266 113.135 138.615C111.759 138.479 110.534 139.48 110.394 140.843C110.257 142.219 111.254 143.453 112.63 143.589Z" fill="white"/>
<path fill-rule="evenodd" clip-rule="evenodd" d="M90.8332 94.9434C107.474 83.2006 123.511 70.6241 139.891 58.5341C141.002 57.7092 141.235 56.1461 140.418 55.0398C139.593 53.9285 138.036 53.6872 136.916 54.5071C120.568 66.5811 104.564 79.1417 87.9518 90.8549C86.8195 91.656 86.5556 93.2127 87.3481 94.34C88.1493 95.4723 89.7059 95.7359 90.8332 94.9434Z" fill="white"/>
<path fill-rule="evenodd" clip-rule="evenodd" d="M29.7795 54.1513C35.9153 38.0639 41.6103 21.7798 47.9256 5.76137C48.4238 4.47857 47.794 3.02971 46.5162 2.52292C45.2297 2.01112 43.7759 2.64957 43.2691 3.92736C36.9524 19.9681 31.2474 36.2696 25.1103 52.3793C24.6208 53.6671 25.2642 55.1125 26.552 55.602C27.8484 56.0965 29.2851 55.4478 29.7795 54.1513Z" fill="white"/>
</svg>
