<svg width="213" height="164" viewBox="0 0 213 164" fill="none" xmlns="http://www.w3.org/2000/svg">
<path fill-rule="evenodd" clip-rule="evenodd" d="M122.887 43.4842C105.462 26.9766 84.3226 12.6165 60.7821 8.0125C52.2169 6.33645 43.7819 6.67542 35.1432 6.94477C34.5374 6.96274 34.0586 7.47144 34.0758 8.08001C34.0958 8.68933 34.6045 9.16816 35.2139 9.14813C43.6856 8.88513 51.9589 8.53289 60.3585 10.1766C83.565 14.7151 104.372 28.938 121.524 45.2284L121.295 45.5124C118.796 48.59 118.396 53.9514 119.513 59.9897C121.112 68.6451 125.709 78.7168 130.613 84.9138C132.818 87.698 135.108 89.7057 137.21 90.5606C138.849 91.2281 140.406 91.2367 141.803 90.523C144.777 89.0003 145.682 85.2856 144.931 80.4961C143.363 70.4789 134.872 55.5655 129.566 50.0905C127.909 48.3814 126.212 46.6829 124.477 45.007C124.902 44.4537 125.32 43.9137 125.75 43.407C126.98 41.9669 128.334 40.7823 130.464 40.2922C133.783 39.532 137.339 40.1994 140.799 41.553C146.196 43.6693 151.351 47.4754 155.072 50.5548C175.795 67.7057 182.464 89.6096 183.69 110.133C184.924 130.86 180.63 150.202 179.484 161.983C179.424 162.589 179.869 163.126 180.475 163.186C181.08 163.246 181.62 162.802 181.678 162.195C182.832 150.338 187.134 130.866 185.888 110.001C184.635 88.9323 177.75 66.4629 156.48 48.8557C152.604 45.6477 147.225 41.7034 141.604 39.5003C137.713 37.9767 133.706 37.2877 129.97 38.1436C126.618 38.913 124.801 41.0284 122.887 43.4842ZM123.12 46.7618L123.005 46.9021C120.82 49.5921 120.705 54.3085 121.682 59.5882C123.218 67.9054 127.628 77.5875 132.344 83.5447C133.96 85.5883 135.603 87.1852 137.18 88.0945C138.482 88.843 139.713 89.1157 140.796 88.5588C141.823 88.0374 142.425 87.1021 142.73 85.9069C143.091 84.5042 143.056 82.7731 142.754 80.8383C141.247 71.2128 133.082 56.8858 127.983 51.6254C126.398 49.9928 124.778 48.3689 123.12 46.7618Z" fill="black"/>
<path fill-rule="evenodd" clip-rule="evenodd" d="M31.5574 9.51663C31.7723 9.08445 32.2375 8.59309 32.7441 8.07078C33.9492 6.82521 35.5247 5.57672 36.2433 4.958C36.7049 4.55884 36.7532 3.86269 36.3568 3.40193C35.9576 2.94041 35.2622 2.88925 34.8007 3.28842C33.9213 4.04735 31.8248 5.71513 30.5358 7.21766C29.845 8.02412 29.386 8.8176 29.2719 9.44508C29.0758 10.5133 29.7278 11.3881 31.3784 11.7883C33.3311 12.2605 37.1943 12.253 39.8976 14.2303C40.3872 14.5898 41.0803 14.4811 41.4371 13.9908C41.7974 13.4984 41.6907 12.8087 41.1983 12.4484C38.6202 10.5647 35.1237 10.2018 32.8068 9.82135C32.3666 9.74847 31.8579 9.60617 31.5574 9.51663Z" fill="black"/>
</svg>
